<svg width="35" height="47" viewBox="0 0 35 47" fill="none" xmlns="http://www.w3.org/2000/svg">
<path d="M17.5093 34.2059C26.622 34.2059 34.0093 26.8186 34.0093 17.7059C34.0093 8.59324 26.622 1.20593 17.5093 1.20593C8.39658 1.20593 1.00928 8.59324 1.00928 17.7059C1.00928 26.8186 8.39658 34.2059 17.5093 34.2059Z" stroke="white" stroke-width="2" stroke-linecap="round" stroke-linejoin="round"/>
<path d="M17.5094 24.7773C21.4149 24.7773 24.5808 21.6113 24.5808 17.7058C24.5808 13.8004 21.4149 10.6344 17.5094 10.6344C13.604 10.6344 10.438 13.8004 10.438 17.7058C10.438 21.6113 13.604 24.7773 17.5094 24.7773Z" stroke="white" stroke-width="2" stroke-linecap="round" stroke-linejoin="round"/>
<path d="M9.25941 31.8488L2.18799 45.9916H32.8308L25.7594 31.8488" stroke="white" stroke-width="2" stroke-linecap="round" stroke-linejoin="round"/>
<ellipse cx="17.3677" cy="17.5643" rx="6.02677" ry="6.02678" fill="#FF0000"/>
</svg>
