<svg width="191" height="48" viewBox="0 0 191 48" fill="none" xmlns="http://www.w3.org/2000/svg">
<path d="M0.860576 47V1.5H11.3906V38.42H34.2056V47H0.860576ZM98.939 47.78C95.3423 47.78 92.0273 47.2167 88.994 46.09C86.004 44.92 83.3823 43.2733 81.129 41.15C78.919 39.0267 77.1856 36.535 75.929 33.675C74.7156 30.815 74.109 27.6733 74.109 24.25C74.109 20.8267 74.7156 17.685 75.929 14.825C77.1856 11.965 78.9406 9.47333 81.194 7.35C83.4473 5.22666 86.0906 3.60166 89.124 2.475C92.1573 1.305 95.494 0.719999 99.134 0.719999C103.164 0.719999 106.782 1.39166 109.989 2.735C113.239 4.07833 115.969 6.02833 118.179 8.585L111.419 14.825C109.772 13.0917 107.974 11.8133 106.024 10.99C104.074 10.1233 101.951 9.69 99.654 9.69C97.444 9.69 95.429 10.0367 93.609 10.73C91.789 11.4233 90.2073 12.42 88.864 13.72C87.564 15.02 86.5456 16.5583 85.809 18.335C85.1156 20.1117 84.769 22.0833 84.769 24.25C84.769 26.3733 85.1156 28.3233 85.809 30.1C86.5456 31.8767 87.564 33.4367 88.864 34.78C90.2073 36.08 91.7673 37.0767 93.544 37.77C95.364 38.4633 97.3573 38.81 99.524 38.81C101.604 38.81 103.619 38.485 105.569 37.835C107.562 37.1417 109.491 35.9933 111.354 34.39L117.334 41.995C114.864 43.8583 111.982 45.2883 108.689 46.285C105.439 47.2817 102.189 47.78 98.939 47.78ZM107.714 40.63V23.535H117.334V41.995L107.714 40.63ZM127.115 47V1.5H137.645V47H127.115ZM148.444 47V1.5H157.154L183.999 34.26H179.774V1.5H190.174V47H181.529L154.619 14.24H158.844V47H148.444Z" fill="white"/>
</svg>
